# Blender v2.65 (sub 0) OBJ File: '1.blend'
# www.blender.org
o Cube
v -0.535178 -0.000000 1.114071
v 0.504127 -0.000000 1.114071
v -0.698609 -0.000000 1.887443
v 0.667558 -0.000000 1.887443
v -0.589336 0.707059 1.190922
v 0.558285 0.707059 1.190922
v -0.704957 0.707059 1.745132
v 0.673906 0.707059 1.745132
v -1.696363 0.707060 0.880239
v 1.665312 0.707060 0.880239
v -1.175482 0.707060 0.637916
v 1.144431 0.707060 0.637916
v -1.821502 -0.000000 0.917728
v 1.790450 -0.000000 0.917728
v -1.066001 -0.000000 0.613260
v 1.034950 -0.000000 0.613260
v -1.129572 0.000000 -0.139699
v 1.098521 0.000000 -0.139699
v -1.956526 0.000000 -0.246779
v 1.925475 0.000000 -0.246779
v -1.245679 0.707060 -0.193517
v 1.214628 0.707060 -0.193517
v -1.822031 0.707060 -0.203578
v 1.790980 0.707060 -0.203578
v -1.313740 0.707060 -1.265173
v 1.282688 0.707060 -1.265173
v -0.901222 0.707060 -0.870037
v 0.870170 0.707060 -0.870037
v -1.410392 0.000000 -1.387410
v 1.379341 0.000000 -1.387410
v -0.817625 0.000000 -0.752367
v 0.786574 0.000000 -0.752367
v -0.015526 0.000001 -1.065782
v -0.015526 0.000001 -1.942525
v -0.015526 0.707061 -1.216118
v -0.015526 0.707061 -1.781823
v -0.755761 0.696378 -1.143015
v -1.285558 0.696378 -0.639189
v -1.442756 0.696378 -0.798388
v -0.912958 0.696378 -1.302215
v -0.755761 1.042521 -1.143015
v -1.285559 1.042521 -0.639189
v -1.442756 1.042521 -0.798388
v -0.912958 1.042521 -1.302215
vt 0.529289 0.282324
vt 0.448772 0.235547
vt 0.427689 0.134489
vt 0.473604 0.016456
vt 0.679119 0.134489
vt 0.658036 0.235547
vt 0.564117 0.281436
vt 0.636977 0.019752
vt 0.341891 0.336385
vt 0.246910 0.292198
vt 0.764917 0.336385
vt 0.859897 0.292198
vt 0.170799 0.257468
vt 0.936009 0.257468
vt 0.421784 0.374490
vt 0.685023 0.374490
vt 0.413819 0.468832
vt 0.329091 0.487993
vt 0.692988 0.468832
vt 0.777717 0.487993
vt 0.223995 0.489828
vt 0.142193 0.504175
vt 0.882813 0.489828
vt 0.964614 0.504175
vt 0.391901 0.611354
vt 0.316680 0.683405
vt 0.714907 0.611354
vt 0.790128 0.683405
vt 0.257895 0.745823
vt 0.848913 0.745823
vt 0.452904 0.545597
vt 0.653903 0.545597
vt 0.553404 0.584866
vt 0.553404 0.674460
vt 0.553404 0.777614
vt 0.553404 0.863427
vt 0.114989 0.682342
vt 0.147997 0.796911
vt 0.123049 0.804099
vt 0.090041 0.689530
vt 0.138677 0.858341
vt 0.163624 0.851154
vt 0.196632 0.965723
vt 0.171685 0.972911
vt 0.057153 0.881829
vt 0.041525 0.827586
vt 0.074414 0.635287
vt 0.099361 0.628100
vt 0.229521 0.773424
vt 0.245148 0.827666
vn 0.977325 0.051326 0.205430
vn -0.977325 0.051326 0.205430
vn 0.000000 1.000000 0.000000
vn -0.648028 0.149392 0.746821
vn 0.648028 0.149392 0.746821
vn 0.680377 0.130497 -0.721150
vn -0.680377 0.130497 -0.721150
vn 0.984363 0.155317 -0.083108
vn -0.984363 0.155317 -0.083108
vn -0.977306 0.178976 0.113318
vn 0.977306 0.178976 0.113319
vn -0.884777 0.194183 -0.423631
vn 0.884777 0.194183 -0.423631
vn 0.876910 0.177983 0.446488
vn -0.876910 0.177983 0.446488
vn 0.357013 0.194266 0.913675
vn -0.357013 0.194266 0.913675
vn -0.361785 0.206616 -0.909077
vn 0.361785 0.206616 -0.909077
vn -0.000001 1.000000 0.000000
vn 0.000001 1.000000 0.000000
vn 1.000000 -0.000000 0.000000
vn -0.000000 -1.000000 -0.000000
vn 0.689122 0.000000 0.724645
vn -0.711568 -0.000000 0.702618
vn -0.689122 -0.000000 -0.724645
vn 0.711568 0.000000 -0.702617
s off
f 1/1/1 5/2/1 7/3/1
f 1/1/1 7/3/1 3/4/1
f 8/5/2 6/6/2 2/7/2
f 8/5/2 2/7/2 4/8/2
f 7/3/3 5/2/3 11/9/3
f 7/3/3 11/9/3 9/10/3
f 12/11/3 6/6/3 8/5/3
f 12/11/3 8/5/3 10/12/3
f 3/4/4 7/3/4 9/10/4
f 3/4/4 9/10/4 13/13/4
f 10/12/5 8/5/5 4/8/5
f 10/12/5 4/8/5 14/14/5
f 5/2/6 1/1/6 15/15/6
f 5/2/6 15/15/6 11/9/6
f 16/16/7 2/7/7 6/6/7
f 16/16/7 6/6/7 12/11/7
f 11/9/8 15/15/8 17/17/8
f 11/9/8 17/17/8 21/18/8
f 18/19/9 16/16/9 12/11/9
f 18/19/9 12/11/9 22/20/9
f 13/13/10 9/10/10 23/21/10
f 13/13/10 23/21/10 19/22/10
f 24/23/11 10/12/11 14/14/11
f 24/23/11 14/14/11 20/24/11
f 9/10/3 11/9/3 21/18/3
f 9/10/3 21/18/3 23/21/3
f 22/20/3 12/11/3 10/12/3
f 22/20/3 10/12/3 24/23/3
f 23/21/3 21/18/3 27/25/3
f 23/21/3 27/25/3 25/26/3
f 28/27/3 22/20/3 24/23/3
f 28/27/3 24/23/3 26/28/3
f 19/22/12 23/21/12 25/26/12
f 19/22/12 25/26/12 29/29/12
f 26/28/13 24/23/13 20/24/13
f 26/28/13 20/24/13 30/30/13
f 21/18/14 17/17/14 31/31/14
f 21/18/14 31/31/14 27/25/14
f 32/32/15 18/19/15 22/20/15
f 32/32/15 22/20/15 28/27/15
f 27/25/16 31/31/16 33/33/16
f 27/25/16 33/33/16 35/34/16
f 33/33/17 32/32/17 28/27/17
f 33/33/17 28/27/17 35/34/17
f 29/29/18 25/26/18 36/35/18
f 29/29/18 36/35/18 34/36/18
f 36/35/19 26/28/19 30/30/19
f 36/35/19 30/30/19 34/36/19
f 25/26/20 27/25/20 35/34/20
f 25/26/20 35/34/20 36/35/20
f 35/34/21 28/27/21 26/28/21
f 35/34/21 26/28/21 36/35/21
f 36/35/22 35/34/22 33/33/22
f 36/35/22 33/33/22 34/36/22
f 39/37/23 40/38/23 37/39/23
f 39/37/23 37/39/23 38/40/23
f 41/41/3 44/42/3 43/43/3
f 41/41/3 43/43/3 42/44/3
f 37/39/24 41/41/24 42/45/24
f 37/39/24 42/45/24 38/46/24
f 38/40/25 42/47/25 43/48/25
f 38/40/25 43/48/25 39/37/25
f 39/49/26 43/50/26 44/42/26
f 39/49/26 44/42/26 40/38/26
f 40/38/27 44/42/27 41/41/27
f 40/38/27 41/41/27 37/39/27
