# Blender v2.65 (sub 0) OBJ File: 'tree.blend'
# www.blender.org
o Tree_Cube
v 0.146086 0.000000 -0.321266
v 0.146086 0.000000 0.079351
v -0.196138 0.000000 0.146086
v -0.246189 0.000000 -0.246189
v 0.047160 3.501511 -0.047160
v 0.047160 3.501511 0.047160
v -0.047160 3.501511 0.047160
v -0.047160 3.501511 -0.047160
v -0.219913 3.880226 -0.017446
v 0.346730 3.901855 -0.034093
v -0.542588 2.529954 1.021778
v 0.666858 2.529954 1.021777
v 0.052750 2.207598 1.269876
v -0.131234 3.756976 0.246630
v 0.040076 3.778605 -0.293753
v 0.743252 2.406704 0.894226
v 1.142437 2.406704 -0.247445
v 1.173942 2.084347 0.414136
v 0.204131 2.413476 -0.206019
v -0.102627 2.435105 0.270700
v -0.470404 1.063204 -1.059897
v -1.154451 1.063204 -0.062481
v -1.011724 0.740848 -0.709250
v 0.251298 3.789435 0.129357
v -0.282314 3.811064 -0.062004
v 0.931083 2.439163 -0.720348
v -0.194891 2.439163 -1.161868
v 0.467404 2.116807 -1.168658
v -0.169755 3.022149 -0.295289
v 0.226396 3.043778 0.110206
v -1.152734 1.671877 0.171466
v -0.333320 1.671877 1.061028
v -0.931865 1.349521 0.777433
v 0.092748 3.200742 -0.245875
v -0.048593 3.222372 0.303109
v -0.816020 1.850471 -0.844412
v -1.151832 1.850471 0.317479
v -1.219664 1.528115 -0.341369
v 0.286848 3.547920 -0.121496
v -0.242248 3.569550 0.082019
v 0.246842 2.197648 -1.208926
v -0.894240 2.197649 -0.808064
v -0.397075 1.875292 -1.245681
v 0.135282 2.624998 0.284429
v -0.170947 2.646628 -0.192630
v 1.192197 1.274727 0.025518
v 0.569032 1.274727 -1.011027
v 1.098081 0.952370 -0.612543
v -0.199903 2.867913 0.221114
v 0.135184 2.889542 -0.236137
v 0.421641 1.517641 1.114305
v 1.164881 1.517641 0.160180
v 0.983217 1.195285 0.797110
v -0.170490 3.731048 -0.322284
v 0.126364 3.752678 0.160663
v -1.232260 2.380776 -0.084061
v -0.629455 2.380777 0.964455
v -1.150622 2.058420 0.555716
vt 0.543816 0.217324
vt 0.605052 0.228919
vt 0.605347 0.283162
vt 0.543938 0.279458
vt 0.986866 0.743239
vt 0.978364 0.735785
vt 0.990319 0.730761
vt 0.998822 0.738214
vt 0.202552 0.335249
vt 0.161581 0.880329
vt 0.146907 0.880374
vt 0.140228 0.335440
vt 0.945764 0.283367
vt 0.929636 0.828098
vt 0.915131 0.828092
vt 0.891567 0.283162
vt 1.000000 0.283162
vt 0.945764 0.300102
vt 0.868179 0.283162
vt 0.891567 0.829274
vt 0.829472 0.829310
vt 0.853677 0.283360
vt 0.544514 0.363827
vt 0.450448 0.560187
vt 0.368807 0.528457
vt 0.368660 0.303249
vt 0.466388 0.283162
vt 0.368660 0.419803
vt 0.282501 0.620387
vt 0.207504 0.582313
vt 0.207125 0.345945
vt 0.296837 0.330576
vt 0.689015 0.875916
vt 0.689153 0.608981
vt 0.741508 0.581769
vt 0.799780 0.809444
vt 0.752114 0.900752
vt 0.689015 0.376480
vt 0.611484 0.590752
vt 0.544514 0.551737
vt 0.544751 0.301087
vt 0.625009 0.283162
vt 0.184267 0.078790
vt 0.368273 0.319011
vt 0.281119 0.330576
vt 0.368660 0.045189
vt 0.263656 0.000000
vt 0.140228 0.374932
vt 0.140111 0.648070
vt 0.073829 0.664080
vt 0.000000 0.417912
vt 0.060332 0.335249
vt 0.368690 0.261405
vt 0.368660 0.024404
vt 0.451441 0.000000
vt 0.543816 0.201871
vt 0.468511 0.283162
vt 0.829472 0.297019
vt 0.829307 0.548262
vt 0.762917 0.581769
vt 0.689015 0.376284
vt 0.749457 0.283162
vt 0.544514 0.655573
vt 0.477387 0.871817
vt 0.418791 0.831439
vt 0.418312 0.577365
vt 0.488358 0.560187
vt 0.184267 0.079804
vt 0.085505 0.335249
vt 0.000000 0.314816
vt 0.000082 0.045097
vt 0.102497 0.000000
vn 0.000000 -1.000000 0.000000
vn 0.000000 1.000000 0.000000
vn 0.999601 0.028241 0.000000
vn 0.151093 0.017425 0.988366
vn -0.993609 0.047915 0.102203
vn -0.152125 0.068788 -0.985965
vn 0.000000 0.609915 0.792467
vn 0.748058 0.609915 0.261559
vn -0.653538 0.609915 -0.448209
vn -0.653539 0.609915 -0.448209
vn 0.289299 0.609915 -0.737774
vn 0.289298 0.609915 -0.737774
vn -0.582869 0.609915 0.536905
vn -0.582869 0.609915 0.536906
vn -0.761307 0.609915 -0.220035
vn -0.262657 0.609915 -0.747673
vn 0.679177 0.609915 -0.408317
vn 0.625172 0.609915 0.486995
vn -0.687021 0.609915 0.394976
vn -0.687021 0.609914 0.394977
s off
f 1/1/1 2/2/1 3/3/1
f 1/1/1 3/3/1 4/4/1
f 5/5/2 8/6/2 7/7/2
f 5/5/2 7/7/2 6/8/2
f 1/9/3 5/10/3 6/11/3
f 1/9/3 6/11/3 2/12/3
f 2/13/4 6/14/4 7/15/4
f 2/13/4 7/15/4 3/16/4
f 3/17/5 7/7/5 8/6/5
f 3/17/5 8/6/5 4/18/5
f 5/19/6 1/20/6 4/21/6
f 5/19/6 4/21/6 8/22/6
f 12/23/7 10/24/7 9/25/7
f 11/26/7 12/23/7 9/25/7
f 11/26/7 13/27/7 12/23/7
f 17/28/8 15/29/8 14/30/8
f 16/31/8 17/28/8 14/30/8
f 16/31/8 18/32/8 17/28/8
f 22/33/9 20/34/9 19/35/9
f 21/36/10 22/33/10 19/35/10
f 21/36/10 23/37/10 22/33/10
f 27/38/11 25/39/11 24/40/11
f 26/41/12 27/38/12 24/40/12
f 26/41/12 28/42/12 27/38/12
f 31/43/13 30/44/13 29/45/13
f 31/43/14 32/46/14 30/44/14
f 31/43/14 33/47/14 32/46/14
f 37/48/15 35/49/15 34/50/15
f 36/51/15 37/48/15 34/50/15
f 36/51/15 38/52/15 37/48/15
f 42/53/16 40/54/16 39/55/16
f 41/56/16 42/53/16 39/55/16
f 41/56/16 43/57/16 42/53/16
f 47/58/17 45/59/17 44/60/17
f 46/61/17 47/58/17 44/60/17
f 46/61/17 48/62/17 47/58/17
f 52/63/18 50/64/18 49/65/18
f 51/66/18 52/63/18 49/65/18
f 51/66/18 53/67/18 52/63/18
f 57/68/19 55/69/19 54/70/19
f 56/71/19 57/68/19 54/70/19
f 56/71/20 58/72/20 57/68/20
