# Blender v2.65 (sub 0) OBJ File: 'spawnPlatform.blend'
# www.blender.org
o Circle
v 0.000000 0.046302 0.000001
v 0.000000 0.046302 -4.999999
v -0.975451 0.046302 -4.903925
v -1.913417 0.046302 -4.619397
v -2.777851 0.046302 -4.157347
v -3.535533 0.046302 -3.535533
v -4.157348 0.046302 -2.777850
v -4.619397 0.046302 -1.913416
v -4.903926 0.046302 -0.975451
v -5.000000 0.046302 0.000001
v -4.903926 0.046302 0.975452
v -4.619397 0.046302 1.913417
v -4.157348 0.046302 2.777852
v -3.535533 0.046302 3.535535
v -2.777850 0.046302 4.157349
v -1.913416 0.046302 4.619399
v -0.975450 0.046302 4.903927
v 0.000002 0.046302 5.000000
v 0.975454 0.046302 4.903927
v 1.913420 0.046302 4.619398
v 2.777854 0.046302 4.157348
v 3.535537 0.046302 3.535533
v 4.157351 0.046302 2.777849
v 4.619400 0.046302 1.913414
v 4.903928 0.046302 0.975448
v 5.000000 0.046302 -0.000004
v 4.903926 0.046302 -0.975456
v 4.619396 0.046302 -1.913421
v 4.157345 0.046302 -2.777855
v 3.535530 0.046302 -3.535537
v 2.777846 0.046302 -4.157351
v 1.913411 0.046302 -4.619400
v 0.975445 0.046302 -4.903927
v 0.000001 -0.135796 0.000001
v 0.000001 -0.135796 -5.573030
v -1.087244 -0.135796 -5.465945
v -2.132706 -0.135796 -5.148808
v -3.096209 -0.135796 -4.633805
v -3.940727 -0.135796 -3.940727
v -4.633805 -0.135796 -3.096208
v -5.148808 -0.135796 -2.132705
v -5.465946 -0.135796 -1.087243
v -5.573030 -0.135796 0.000001
v -5.465946 -0.135796 1.087245
v -5.148808 -0.135796 2.132707
v -4.633805 -0.135796 3.096211
v -3.940727 -0.135796 3.940729
v -3.096209 -0.135796 4.633807
v -2.132705 -0.135796 5.148811
v -1.087242 -0.135796 5.465948
v 0.000002 -0.135796 5.573031
v 1.087247 -0.135796 5.465947
v 2.132710 -0.135796 5.148809
v 3.096213 -0.135796 4.633805
v 3.940731 -0.135796 3.940727
v 4.633809 -0.135796 3.096208
v 5.148812 -0.135796 2.132704
v 5.465948 -0.135796 1.087241
v 5.573031 -0.135796 -0.000004
v 5.465946 -0.135796 -1.087249
v 5.148808 -0.135796 -2.132711
v 4.633802 -0.135796 -3.096214
v 3.940724 -0.135796 -3.940731
v 3.096204 -0.135796 -4.633809
v 2.132699 -0.135796 -5.148811
v 1.087237 -0.135796 -5.465947
vt 0.500000 0.500000
vt 0.151558 0.214041
vt 0.102466 0.287513
vt 0.068650 0.369151
vt 0.051411 0.455818
vt 0.051411 0.544182
vt 0.068650 0.630849
vt 0.102466 0.712487
vt 0.151558 0.785959
vt 0.214041 0.848442
vt 0.287513 0.897534
vt 0.369151 0.931350
vt 0.455818 0.948589
vt 0.544182 0.948589
vt 0.630849 0.931350
vt 0.712487 0.897534
vt 0.785959 0.848442
vt 0.848442 0.785959
vt 0.897534 0.712486
vt 0.931350 0.630848
vt 0.948589 0.544182
vt 0.948589 0.455818
vt 0.931350 0.369151
vt 0.897534 0.287513
vt 0.848442 0.214041
vt 0.785958 0.151558
vt 0.712486 0.102466
vt 0.630848 0.068650
vt 0.544182 0.051411
vt 0.455817 0.051411
vt 0.369151 0.068650
vt 0.287513 0.102466
vt 0.214041 0.151559
vt 0.500000 -0.500000
vt 1.000000 -0.450754
vt 1.000000 -0.549246
vt 0.980785 -0.354155
vt 0.943094 -0.263161
vt 0.888375 -0.181269
vt 0.818731 -0.111624
vt 0.736839 -0.056906
vt 0.645845 -0.019215
vt 0.549246 0.000000
vt 0.450754 0.000000
vt 0.354155 -0.019215
vt 0.263161 -0.056906
vt 0.181269 -0.111625
vt 0.111625 -0.181269
vt 0.056906 -0.263161
vt 0.019215 -0.354155
vt 0.000000 -0.450754
vt 0.000000 -0.549246
vt 0.019215 -0.645845
vt 0.056906 -0.736839
vt 0.111625 -0.818732
vt 0.181269 -0.888376
vt 0.263162 -0.943094
vt 0.354156 -0.980785
vt 0.450755 -1.000000
vt 0.549246 -1.000000
vt 0.645845 -0.980785
vt 0.736839 -0.943094
vt 0.818732 -0.888375
vt 0.888376 -0.818731
vt 0.943095 -0.736838
vt 0.980785 -0.645844
vt 0.736838 0.056906
vt 0.645844 0.019215
vt 0.111625 0.818731
vt 0.181268 0.888375
vt 1.000000 0.450754
vt 0.980785 0.354155
vt 0.019215 0.354155
vt 0.000000 0.450754
vt 0.111625 0.181269
vt 0.056906 0.263161
vt 0.818731 0.888375
vt 0.888375 0.818731
vt 0.354155 0.019215
vt 0.354155 0.980785
vt 0.450754 1.000000
vt 0.888375 0.181268
vt 0.818731 0.111624
vt 0.019215 0.645845
vt 0.056906 0.736839
vt 0.980785 0.645844
vt 1.000000 0.549245
vt 0.181268 0.111625
vt 0.645845 0.980785
vt 0.736839 0.943094
vt 0.549245 0.000000
vt 0.263161 0.943094
vt 0.943094 0.263161
vt 0.000000 0.549246
vt 0.943094 0.736839
vt 0.263161 0.056906
vt 0.549246 1.000000
vn -0.000000 1.000000 0.000000
vn 0.000000 -1.000000 0.000000
vn 0.291088 0.952613 -0.088301
vn -0.302722 0.952613 -0.029815
vn 0.235139 0.952613 0.192973
vn -0.143392 0.952613 -0.268268
vn -0.029815 0.952613 -0.302722
vn -0.029815 0.952613 0.302721
vn 0.192973 0.952613 -0.235139
vn -0.268268 0.952613 0.143392
vn 0.302721 0.952613 0.029815
vn -0.268268 0.952613 -0.143392
vn 0.143392 0.952613 0.268268
vn 0.029815 0.952613 -0.302722
vn -0.143392 0.952613 0.268268
vn 0.268268 0.952613 -0.143393
vn -0.302722 0.952613 0.029815
vn 0.268268 0.952613 0.143392
vn -0.192974 0.952613 -0.235139
vn 0.029815 0.952613 0.302721
vn 0.143392 0.952613 -0.268269
vn -0.235139 0.952613 0.192974
vn 0.302721 0.952613 -0.029816
vn -0.291088 0.952613 -0.088301
vn 0.192974 0.952613 0.235139
vn -0.088301 0.952613 -0.291088
vn -0.088300 0.952613 0.291088
vn 0.235139 0.952613 -0.192974
vn -0.291088 0.952613 0.088301
vn 0.291088 0.952613 0.088300
vn -0.235139 0.952613 -0.192974
vn 0.088301 0.952613 0.291088
vn 0.088300 0.952613 -0.291088
vn -0.192974 0.952613 0.235139
s off
f 1/1/1 2/2/1 3/3/1
f 1/1/1 3/3/1 4/4/1
f 1/1/1 4/4/1 5/5/1
f 1/1/1 5/5/1 6/6/1
f 1/1/1 6/6/1 7/7/1
f 1/1/1 7/7/1 8/8/1
f 1/1/1 8/8/1 9/9/1
f 1/1/1 9/9/1 10/10/1
f 1/1/1 10/10/1 11/11/1
f 1/1/1 11/11/1 12/12/1
f 1/1/1 12/12/1 13/13/1
f 1/1/1 13/13/1 14/14/1
f 1/1/1 14/14/1 15/15/1
f 1/1/1 15/15/1 16/16/1
f 1/1/1 16/16/1 17/17/1
f 1/1/1 17/17/1 18/18/1
f 1/1/1 18/18/1 19/19/1
f 1/1/1 19/19/1 20/20/1
f 1/1/1 20/20/1 21/21/1
f 1/1/1 21/21/1 22/22/1
f 1/1/1 22/22/1 23/23/1
f 1/1/1 23/23/1 24/24/1
f 1/1/1 24/24/1 25/25/1
f 1/1/1 25/25/1 26/26/1
f 1/1/1 26/26/1 27/27/1
f 1/1/1 27/27/1 28/28/1
f 1/1/1 28/28/1 29/29/1
f 1/1/1 29/29/1 30/30/1
f 1/1/1 30/30/1 31/31/1
f 1/1/1 31/31/1 32/32/1
f 1/1/1 32/32/1 33/33/1
f 1/1/1 33/33/1 2/2/1
f 34/34/2 36/35/2 35/36/2
f 34/34/2 37/37/2 36/35/2
f 34/34/2 38/38/2 37/37/2
f 34/34/2 39/39/2 38/38/2
f 34/34/2 40/40/2 39/39/2
f 34/34/2 41/41/2 40/40/2
f 34/34/2 42/42/2 41/41/2
f 34/34/2 43/43/2 42/42/2
f 34/34/2 44/44/2 43/43/2
f 34/34/2 45/45/2 44/44/2
f 34/34/2 46/46/2 45/45/2
f 34/34/2 47/47/2 46/46/2
f 34/34/2 48/48/2 47/47/2
f 34/34/2 49/49/2 48/48/2
f 34/34/2 50/50/2 49/49/2
f 34/34/2 51/51/2 50/50/2
f 34/34/2 52/52/2 51/51/2
f 34/34/2 53/53/2 52/52/2
f 34/34/2 54/54/2 53/53/2
f 34/34/2 55/55/2 54/54/2
f 34/34/2 56/56/2 55/55/2
f 34/34/2 57/57/2 56/56/2
f 34/34/2 58/58/2 57/57/2
f 34/34/2 59/59/2 58/58/2
f 34/34/2 60/60/2 59/59/2
f 34/34/2 61/61/2 60/60/2
f 34/34/2 62/62/2 61/61/2
f 34/34/2 63/63/2 62/62/2
f 34/34/2 64/64/2 63/63/2
f 34/34/2 65/65/2 64/64/2
f 34/34/2 66/66/2 65/65/2
f 34/34/2 35/36/2 66/66/2
f 27/27/3 60/67/3 61/68/3
f 27/27/3 61/68/3 28/28/3
f 9/9/4 42/69/4 43/70/4
f 9/9/4 43/70/4 10/10/4
f 22/22/5 55/71/5 56/72/5
f 22/22/5 56/72/5 23/23/5
f 4/4/6 37/73/6 38/74/6
f 4/4/6 38/74/6 5/5/6
f 2/2/7 35/75/7 36/76/7
f 2/2/7 36/76/7 3/3/7
f 17/17/8 50/77/8 51/78/8
f 17/17/8 51/78/8 18/18/8
f 30/30/9 63/44/9 64/79/9
f 30/30/9 64/79/9 31/31/9
f 12/12/10 45/80/10 46/81/10
f 12/12/10 46/81/10 13/13/10
f 25/25/11 58/82/11 59/83/11
f 25/25/11 59/83/11 26/26/11
f 7/7/12 40/84/12 41/85/12
f 7/7/12 41/85/12 8/8/12
f 20/20/13 53/86/13 54/87/13
f 20/20/13 54/87/13 21/21/13
f 33/33/14 66/88/14 35/75/14
f 33/33/14 35/75/14 2/2/14
f 15/15/15 48/89/15 49/90/15
f 15/15/15 49/90/15 16/16/15
f 28/28/16 61/68/16 62/91/16
f 28/28/16 62/91/16 29/29/16
f 10/10/17 43/70/17 44/92/17
f 10/10/17 44/92/17 11/11/17
f 23/23/18 56/72/18 57/93/18
f 23/23/18 57/93/18 24/24/18
f 5/5/19 38/74/19 39/94/19
f 5/5/19 39/94/19 6/6/19
f 18/18/20 51/78/20 52/95/20
f 18/18/20 52/95/20 19/19/20
f 31/31/21 64/79/21 65/96/21
f 31/31/21 65/96/21 32/32/21
f 13/13/22 46/81/22 47/97/22
f 13/13/22 47/97/22 14/14/22
f 26/26/23 59/83/23 60/67/23
f 26/26/23 60/67/23 27/27/23
f 8/8/24 41/85/24 42/69/24
f 8/8/24 42/69/24 9/9/24
f 21/21/25 54/87/25 55/71/25
f 21/21/25 55/71/25 22/22/25
f 3/3/26 36/76/26 37/73/26
f 3/3/26 37/73/26 4/4/26
f 16/16/27 49/90/27 50/77/27
f 16/16/27 50/77/27 17/17/27
f 29/29/28 62/91/28 63/44/28
f 29/29/28 63/44/28 30/30/28
f 11/11/29 44/92/29 45/80/29
f 11/11/29 45/80/29 12/12/29
f 24/24/30 57/93/30 58/82/30
f 24/24/30 58/82/30 25/25/30
f 6/6/31 39/94/31 40/84/31
f 6/6/31 40/84/31 7/7/31
f 19/19/32 52/95/32 53/86/32
f 19/19/32 53/86/32 20/20/32
f 32/32/33 65/96/33 66/88/33
f 32/32/33 66/88/33 33/33/33
f 14/14/34 47/97/34 48/89/34
f 14/14/34 48/89/34 15/15/34
