# Blender v2.65 (sub 0) OBJ File: 'shrine 1.blend'
# www.blender.org
o shrine_Cube
v 0.000000 2.772424 0.000000
v 0.615535 3.242654 0.447207
v -0.235109 3.242654 0.723603
v -0.760849 3.242654 -0.000000
v -0.235109 3.242654 -0.723603
v 0.615535 3.242654 -0.447207
v 0.235109 4.003508 0.723603
v -0.615535 4.003508 0.447207
v -0.615535 4.003508 -0.447207
v 0.235109 4.003508 -0.723603
v 0.760849 4.003508 0.000000
v 0.000000 4.473739 0.000000
v -0.000000 0.000000 1.414214
v -0.000001 2.000000 0.896574
v -0.000001 2.544516 1.532396
v 0.398723 2.544516 1.330901
v -0.000000 2.438313 0.677783
v -0.398724 2.544516 1.330901
v -0.000001 3.516547 1.628391
v 0.153668 3.516547 1.550735
v -0.000000 3.516547 1.260914
v -0.153669 3.516547 1.550734
v -0.000001 4.781923 1.208047
v -0.000001 1.146621 0.967379
v -0.000000 -1.729678 2.467893
v -1.414214 0.000000 -0.000000
v -0.896574 2.000000 0.000000
v -0.707107 2.000000 0.707107
v -1.058023 0.000000 1.058023
v -1.532396 2.544516 0.000001
v -1.330901 2.544516 -0.398723
v -0.677783 2.438313 0.000000
v -1.330901 2.544516 0.398723
v -1.628391 3.516547 0.000000
v -1.550734 3.516547 -0.153668
v -1.260914 3.516547 0.000000
v -1.550734 3.516547 0.153668
v -1.208047 4.781923 0.000000
v -0.967379 1.146621 0.000000
v -0.755107 1.146621 0.755107
v -2.467893 -1.729678 -0.000000
v -1.846317 -1.729678 1.846317
v 1.414214 0.000000 0.000000
v 0.896574 2.000000 -0.000000
v 1.058023 0.000000 1.058023
v 0.707107 2.000000 0.707106
v 1.532396 2.544516 -0.000001
v 1.330901 2.544516 0.398723
v 0.677783 2.438313 -0.000000
v 1.330901 2.544516 -0.398723
v 1.628391 3.516547 -0.000000
v 1.550734 3.516547 0.153668
v 1.260914 3.516547 -0.000000
v 1.550734 3.516547 -0.153668
v 1.208047 4.781923 -0.000000
v 0.967379 1.146621 -0.000000
v 0.755107 1.146621 0.755106
v 2.467893 -1.729678 0.000000
v 1.846317 -1.729678 1.846317
v 0.000000 0.000000 -1.414214
v 0.000001 2.000000 -0.896574
v -1.058023 0.000000 -1.058023
v -0.707106 2.000000 -0.707107
v 0.000000 2.376677 -0.000000
v 0.707107 2.000000 -0.707106
v 1.058023 0.000000 -1.058023
v 0.000001 2.544516 -1.532396
v -0.398723 2.544516 -1.330901
v 0.000000 2.438313 -0.677783
v 0.398724 2.544516 -1.330901
v 0.000001 3.516547 -1.628391
v -0.153668 3.516547 -1.550735
v 0.000000 3.516547 -1.260914
v 0.153669 3.516547 -1.550734
v 0.000001 4.781923 -1.208047
v 0.000001 1.146621 -0.967379
v -0.755106 1.146621 -0.755107
v 0.755107 1.146621 -0.755107
v 0.000000 -1.729678 -2.467893
v -1.846317 -1.729678 -1.846317
v 1.846317 -1.729678 -1.846317
vt 0.734567 0.150207
vt 0.747414 0.018367
vt 0.864836 0.029443
vt 0.854410 0.168176
vt 0.233380 0.772599
vt 0.269226 0.701546
vt 0.303011 0.774588
vt 0.983929 0.035143
vt 0.982877 0.174730
vt 0.169442 0.871325
vt 0.140910 0.862826
vt 0.162177 0.776238
vt 0.233380 0.774204
vt 0.054056 0.701546
vt 0.125390 0.710728
vt 0.125390 0.783761
vt 0.088603 0.776238
vt 0.196725 0.701546
vt 0.716001 0.576620
vt 0.730362 0.659333
vt 0.647648 0.644973
vt 0.017400 0.774204
vt 0.109870 0.862826
vt 0.081338 0.871325
vt 0.125390 0.862191
vt 0.125390 0.983088
vt 0.707866 0.307908
vt 0.828860 0.351234
vt 1.000000 0.384688
vt 0.975159 0.640812
vt 0.777192 0.476669
vt 0.663925 0.416214
vt 0.161320 0.142314
vt 0.161262 0.003191
vt 0.279182 0.000896
vt 0.282168 0.133327
vt 0.444590 0.772598
vt 0.480436 0.701546
vt 0.514220 0.774588
vt 0.032721 0.139277
vt 0.042075 0.000000
vt 0.655798 0.772598
vt 0.725427 0.774587
vt 0.746224 0.859261
vt 0.718322 0.867572
vt 0.797375 0.774587
vt 0.761401 0.781944
vt 0.761401 0.710526
vt 0.831159 0.701546
vt 0.691644 0.701546
vt 0.408745 0.701546
vt 0.444590 0.772599
vt 0.374960 0.774588
vt 0.804480 0.867572
vt 0.776578 0.859261
vt 0.867005 0.772598
vt 0.761401 0.858640
vt 0.761401 0.976867
vt 0.173157 0.326768
vt 0.297043 0.292579
vt 0.000000 0.347375
vt 0.215333 0.455704
vt 0.005685 0.604638
vt 0.332790 0.403858
vt 0.619369 0.140018
vt 0.630089 0.008871
vt 0.579295 0.576620
vt 0.647648 0.576620
vt 0.508870 0.128306
vt 0.513658 0.000000
vt 0.323808 0.859264
vt 0.295906 0.867575
vt 0.338985 0.781945
vt 0.338985 0.710525
vt 0.647648 0.508267
vt 0.382064 0.867574
vt 0.354162 0.859264
vt 0.338985 0.858642
vt 0.338986 0.976867
vt 0.600597 0.292533
vt 0.503393 0.275097
vt 0.582174 0.383228
vt 0.499663 0.375057
vt 0.396889 0.000169
vt 0.397806 0.131751
vt 0.593273 0.867573
vt 0.565371 0.859262
vt 0.586168 0.774588
vt 0.550194 0.710526
vt 0.550194 0.781944
vt 0.619952 0.701546
vt 0.535017 0.859262
vt 0.507115 0.867573
vt 0.550194 0.858641
vt 0.550194 0.976867
vt 0.405160 0.285241
vt 0.416772 0.377056
vt 0.730362 0.493906
vt 0.564934 0.493906
vt 0.564934 0.659333
vt 0.429593 0.524892
vt 0.418768 0.586283
vt 0.360189 0.564962
vt 0.481106 0.586283
vt 0.210373 0.530375
vt 0.279776 0.570445
vt 0.221198 0.591766
vt 0.179204 0.584361
vt 0.131450 0.544291
vt 0.433352 0.626354
vt 0.391358 0.618949
vt 0.252366 0.645753
vt 0.193788 0.624432
vt 0.131450 0.624432
vt 0.332780 0.640270
vt 0.481106 0.666424
vt 0.402183 0.680340
vt 0.182963 0.685823
vn 0.686239 0.241066 0.686239
vn 0.688833 0.225684 0.688833
vn 0.000000 -0.384472 0.923124
vn 0.000000 0.218116 0.975890
vn -0.232185 0.972655 0.000000
vn 0.387616 -0.115421 0.914548
vn -0.688833 0.225684 0.688833
vn -0.686239 0.241066 0.686239
vn 0.000000 0.302011 -0.953276
vn 0.905606 0.163823 0.391125
vn 0.914548 -0.115421 0.387616
vn 0.000000 0.972655 -0.232185
vn 0.000000 -0.407086 0.913358
vn -0.914548 -0.115421 0.387616
vn 0.688833 0.225684 -0.688833
vn 0.000000 0.972655 0.232185
vn -0.905606 0.163823 0.391125
vn 0.000000 0.104831 0.994476
vn 0.000000 0.978271 -0.207221
vn 0.624439 0.469161 0.624439
vn 0.000000 0.442824 0.896603
vn -0.624439 0.469161 0.624439
vn -0.594348 0.541734 0.594348
vn 0.000000 0.520218 0.853999
vn 0.594348 0.541734 0.594348
vn -0.975890 0.218116 0.000000
vn -0.923124 -0.384472 0.000000
vn -0.688833 0.225684 -0.688833
vn -0.686239 0.241066 -0.686239
vn 0.914548 -0.115421 -0.387616
vn 0.232185 0.972655 0.000000
vn -0.387616 -0.115421 -0.914548
vn -0.391125 0.163823 -0.905606
vn 0.953276 0.302011 0.000000
vn -0.387616 -0.115421 0.914548
vn -0.913358 -0.407086 0.000000
vn 0.387616 -0.115421 -0.914548
vn -0.391125 0.163823 0.905606
vn -0.994476 0.104831 0.000000
vn 0.207221 0.978271 0.000000
vn -0.896603 0.442824 0.000000
vn -0.624439 0.469161 -0.624439
vn -0.853999 0.520218 0.000000
vn -0.594348 0.541734 -0.594348
vn 0.975890 0.218116 0.000000
vn 0.923124 -0.384472 0.000000
vn 0.000000 1.000000 0.000000
vn 0.686239 0.241066 -0.686239
vn 0.391125 0.163823 0.905606
vn -0.953276 0.302011 0.000000
vn 0.913358 -0.407086 0.000000
vn 0.391125 0.163823 -0.905606
vn 0.994476 0.104831 0.000000
vn -0.207221 0.978271 0.000000
vn 0.896603 0.442824 0.000000
vn 0.624439 0.469161 -0.624439
vn 0.853999 0.520218 0.000000
vn 0.594348 0.541734 -0.594348
vn 0.000000 -0.384472 -0.923124
vn 0.000000 0.218116 -0.975890
vn 0.000000 0.302011 0.953276
vn -0.905606 0.163823 -0.391125
vn -0.914548 -0.115421 -0.387616
vn 0.000000 -0.407086 -0.913358
vn 0.905606 0.163823 -0.391125
vn 0.000000 0.104831 -0.994476
vn 0.000000 0.978271 0.207221
vn 0.000000 0.442824 -0.896603
vn 0.000000 0.520218 -0.853999
vn 0.000000 -1.000000 0.000000
vn 0.723594 -0.447188 0.525712
vn -0.276376 -0.447188 0.850642
vn 0.723594 -0.447188 -0.525712
vn -0.894406 -0.447188 0.000000
vn -0.276376 -0.447188 -0.850642
vn 0.894406 0.447188 0.000000
vn 0.276376 0.447188 0.850642
vn -0.723594 0.447188 0.525712
vn -0.723594 0.447188 -0.525712
vn 0.276376 0.447188 -0.850642
s 1
f 57/1/1 46/2/2 14/3/3
f 57/1/1 14/3/3 24/4/4
f 49/5/5 46/6/2 48/7/6
f 24/4/4 14/3/3 28/8/7
f 24/4/4 28/8/7 40/9/8
f 21/10/9 20/11/10 16/12/11
f 21/10/9 16/12/11 17/13/12
f 28/14/7 14/15/3 15/16/13
f 28/14/7 15/16/13 18/17/14
f 16/12/11 15/16/13 14/15/3
f 16/12/11 14/15/3 46/18/2
f 49/19/5 65/20/15 69/21/16
f 17/22/12 18/17/14 22/23/17
f 17/22/12 22/23/17 21/24/9
f 18/17/14 15/16/13 19/25/18
f 18/17/14 19/25/18 22/23/17
f 20/11/10 19/25/18 15/16/13
f 20/11/10 15/16/13 16/12/11
f 23/26/19 19/25/18 20/11/10
f 23/26/19 20/11/10 21/10/9
f 21/24/9 22/23/17 23/26/19
f 22/23/17 19/25/18 23/26/19
f 45/27/20 57/1/1 24/4/4
f 45/27/20 24/4/4 13/28/21
f 13/28/21 24/4/4 40/9/8
f 13/28/21 40/9/8 29/29/22
f 42/30/23 25/31/24 13/28/21
f 42/30/23 13/28/21 29/29/22
f 45/27/20 13/28/21 25/31/24
f 45/27/20 25/31/24 59/32/25
f 39/33/26 27/34/27 63/35/28
f 39/33/26 63/35/28 77/36/29
f 69/37/16 65/38/15 70/39/30
f 40/40/8 28/41/7 27/34/27
f 40/40/8 27/34/27 39/33/26
f 32/42/31 31/43/32 35/44/33
f 32/42/31 35/44/33 36/45/34
f 33/46/35 30/47/36 27/48/27
f 33/46/35 27/48/27 28/49/7
f 63/50/28 27/48/27 30/47/36
f 63/50/28 30/47/36 31/43/32
f 65/51/15 49/52/5 50/53/37
f 36/54/34 37/55/38 33/46/35
f 36/54/34 33/46/35 32/56/31
f 37/55/38 34/57/39 30/47/36
f 37/55/38 30/47/36 33/46/35
f 31/43/32 30/47/36 34/57/39
f 31/43/32 34/57/39 35/44/33
f 35/44/33 34/57/39 38/58/40
f 36/45/34 35/44/33 38/58/40
f 38/58/40 37/55/38 36/54/34
f 38/58/40 34/57/39 37/55/38
f 26/59/41 39/33/26 77/36/29
f 26/59/41 77/36/29 62/60/42
f 29/61/22 40/40/8 39/33/26
f 29/61/22 39/33/26 26/59/41
f 29/61/22 26/59/41 41/62/43
f 29/61/22 41/62/43 42/63/23
f 80/64/44 41/62/43 26/59/41
f 80/64/44 26/59/41 62/60/42
f 56/65/45 44/66/46 46/2/2
f 56/65/45 46/2/2 57/1/1
f 32/67/31 64/68/47 69/21/16
f 78/69/48 65/70/15 44/66/46
f 78/69/48 44/66/46 56/65/45
f 49/5/5 48/7/6 52/71/49
f 49/5/5 52/71/49 53/72/50
f 50/53/37 47/73/51 44/74/46
f 50/53/37 44/74/46 65/51/15
f 46/6/2 44/74/46 47/73/51
f 46/6/2 47/73/51 48/7/6
f 17/75/12 64/68/47 32/67/31
f 53/76/50 54/77/52 50/53/37
f 53/76/50 50/53/37 49/52/5
f 54/77/52 51/78/53 47/73/51
f 54/77/52 47/73/51 50/53/37
f 48/7/6 47/73/51 51/78/53
f 48/7/6 51/78/53 52/71/49
f 52/71/49 51/78/53 55/79/54
f 53/72/50 52/71/49 55/79/54
f 55/79/54 54/77/52 53/76/50
f 55/79/54 51/78/53 54/77/52
f 43/80/55 56/65/45 57/1/1
f 43/80/55 57/1/1 45/27/20
f 66/81/56 78/69/48 56/65/45
f 66/81/56 56/65/45 43/80/55
f 66/81/56 43/80/55 58/82/57
f 66/81/56 58/82/57 81/83/58
f 59/32/25 58/82/57 43/80/55
f 59/32/25 43/80/55 45/27/20
f 77/36/29 63/35/28 61/84/59
f 77/36/29 61/84/59 76/85/60
f 17/75/12 49/19/5 64/68/47
f 76/85/60 61/84/59 65/70/15
f 76/85/60 65/70/15 78/69/48
f 73/86/61 72/87/62 68/88/63
f 73/86/61 68/88/63 69/42/16
f 65/38/15 61/89/59 67/90/64
f 65/38/15 67/90/64 70/39/30
f 68/88/63 67/90/64 61/89/59
f 68/88/63 61/89/59 63/91/28
f 64/68/47 49/19/5 69/21/16
f 69/37/16 70/39/30 74/92/65
f 69/37/16 74/92/65 73/93/61
f 70/39/30 67/90/64 71/94/66
f 70/39/30 71/94/66 74/92/65
f 72/87/62 71/94/66 67/90/64
f 72/87/62 67/90/64 68/88/63
f 75/95/67 71/94/66 72/87/62
f 75/95/67 72/87/62 73/86/61
f 73/93/61 74/92/65 75/95/67
f 74/92/65 71/94/66 75/95/67
f 62/60/42 77/36/29 76/85/60
f 62/60/42 76/85/60 60/96/68
f 60/96/68 76/85/60 78/69/48
f 60/96/68 78/69/48 66/81/56
f 81/83/58 79/97/69 60/96/68
f 81/83/58 60/96/68 66/81/56
f 62/60/42 60/96/68 79/97/69
f 62/60/42 79/97/69 80/64/44
f 17/75/12 46/98/2 49/19/5
f 46/18/2 17/13/12 16/12/11
f 17/22/12 28/14/7 18/17/14
f 28/99/7 17/75/12 32/67/31
f 28/49/7 32/56/31 33/46/35
f 32/42/31 63/50/28 31/43/32
f 63/91/28 69/42/16 68/88/63
f 63/100/28 32/67/31 69/21/16
f 1/101/70 2/102/71 3/103/72
f 2/102/71 1/101/70 6/104/73
f 1/105/70 3/106/72 4/107/74
f 1/105/70 4/107/74 5/108/75
f 1/105/70 5/108/75 6/109/73
f 2/102/71 6/104/73 11/110/76
f 3/103/72 2/102/71 7/111/77
f 4/107/74 3/106/72 8/112/78
f 5/108/75 4/107/74 9/113/79
f 6/109/73 5/108/75 10/114/80
f 2/102/71 11/110/76 7/111/77
f 3/103/72 7/111/77 8/115/78
f 4/107/74 8/112/78 9/113/79
f 5/108/75 9/113/79 10/114/80
f 6/104/73 10/116/80 11/110/76
f 7/111/77 11/110/76 12/117/47
f 8/115/78 7/111/77 12/117/47
f 9/113/79 8/112/78 12/118/47
f 10/114/80 9/113/79 12/118/47
f 11/110/76 10/116/80 12/117/47
